<?xml version="1.0" standalone="no"?>
<!DOCTYPE svg PUBLIC "-//W3C//DTD SVG 20010904//EN"
 "http://www.w3.org/TR/2001/REC-SVG-20010904/DTD/svg10.dtd">
<svg version="1.0" xmlns="http://www.w3.org/2000/svg"
 width="1000.000000pt" height="1000.000000pt" viewBox="0 0 1000.000000 1000.000000"
 preserveAspectRatio="xMidYMid meet">
<metadata>
Created by potrace 1.16, written by Peter Selinger 2001-2019
</metadata>
<g transform="translate(0.000000,1000.000000) scale(0.100000,-0.100000)"
fill="#000000" stroke="none">
<path d="M820 8311 c-202 -43 -362 -132 -516 -285 -155 -156 -242 -315 -285
-521 -18 -86 -19 -186 -19 -2505 0 -2319 1 -2419 19 -2505 43 -206 130 -365
285 -521 155 -155 314 -242 521 -285 87 -18 226 -19 4175 -19 3949 0 4088 1
4175 19 210 43 366 130 525 290 118 120 183 219 236 359 69 185 64 -17 64
2662 0 2679 5 2477 -64 2662 -53 140 -118 239 -236 359 -159 160 -315 247
-525 290 -87 18 -224 19 -4180 18 -3905 0 -4094 -1 -4175 -18z m2930 -1088
c-1 -652 -2 -687 -18 -667 -9 12 -45 57 -80 102 -78 99 -270 286 -378 369
-234 178 -524 323 -769 385 -98 25 -237 21 -335 -11 -193 -61 -352 -222 -412
-416 -31 -98 -31 -251 0 -355 126 -431 414 -854 772 -1134 41 -33 79 -63 85
-68 5 -4 -487 -8 -1093 -8 l-1102 0 0 955 c0 1047 0 1039 59 1170 85 184 261
320 461 355 25 4 667 8 1428 9 l1382 1 0 -687z m5390 658 c89 -32 125 -51 197
-106 72 -53 144 -144 184 -230 59 -131 59 -123 59 -1170 l0 -955 -2146 0
-2146 0 61 46 c218 163 424 391 574 634 67 109 170 328 213 455 32 94 38 126
42 221 5 137 -7 200 -60 307 -57 113 -172 229 -278 280 -199 95 -361 90 -640
-20 -369 -145 -701 -391 -950 -704 l-80 -100 0 686 0 685 2453 -2 2452 -3 65
-24z m-6663 -906 c470 -157 868 -515 1089 -980 75 -159 124 -319 159 -519 l6
-38 -58 7 c-32 4 -109 20 -170 36 -542 139 -996 512 -1234 1014 -61 129 -109
267 -109 313 1 81 65 163 147 189 54 17 55 16 170 -22z m3180 -1 c49 -28 92
-95 100 -152 11 -84 -142 -426 -272 -607 -274 -383 -699 -661 -1152 -754 -123
-25 -143 -26 -143 -5 0 42 45 232 81 339 137 410 423 773 791 1001 119 74 246
134 378 179 118 40 147 40 217 -1z m-2669 -2431 c-251 -252 -463 -472 -472
-490 -36 -72 -14 -196 46 -249 59 -54 159 -71 236 -39 25 11 182 160 495 473
l457 457 0 -1303 0 -1302 -1372 0 c-908 0 -1395 4 -1437 11 -195 31 -378 172
-462 354 -60 133 -59 102 -59 1380 l0 1165 1512 0 1513 0 -457 -457z m6592
-708 c0 -1278 1 -1247 -59 -1380 -84 -182 -267 -323 -462 -354 -43 -7 -845
-11 -2476 -11 l-2413 0 0 1302 0 1303 458 -457 c251 -251 471 -463 489 -472
18 -9 57 -16 91 -16 150 0 242 127 202 278 -12 43 -49 83 -474 510 l-460 462
2552 0 2552 0 0 -1165z"/>
<path d="M6785 4151 c-130 -58 -164 -225 -69 -331 68 -75 0 -70 988 -70 960 0
926 -2 984 53 84 78 84 236 0 314 -58 55 -24 53 -980 53 -832 0 -885 -1 -923
-19z"/>
<path d="M5552 3329 c-50 -15 -116 -86 -131 -142 -27 -94 14 -195 97 -244 l47
-28 1485 -3 c1058 -2 1500 1 1538 9 37 7 66 22 92 45 56 51 73 93 68 174 -5
89 -38 142 -111 176 l-52 24 -1500 -1 c-923 0 -1513 -4 -1533 -10z"/>
</g>
</svg>
